<?xml version="1.0" encoding="UTF-8"?>
<svg id="Layer_1" data-name="Layer 1" xmlns="http://www.w3.org/2000/svg" width="24" height="23.95" viewBox="0 0 24 23.95">
  <defs>
    <style>
      .cls-1 {
        fill: #071d49;
      }
    </style>
  </defs>
  <path class="cls-1" d="M5.38,23.95H.4V7.94H5.38V23.95ZM2.89,5.76c-1.6,0-2.89-1.29-2.89-2.88S1.29,0,2.89,0s2.88,1.29,2.88,2.88-1.29,2.88-2.88,2.88ZM24,23.95h-4.97v-7.78c0-1.85-.03-4.24-2.59-4.24s-2.98,2.02-2.98,4.11v7.91h-4.96V7.94h4.77v2.19h.07c.66-1.26,2.29-2.59,4.7-2.59,5.04,0,5.97,3.31,5.97,7.62v8.78Z"/>
</svg>