<svg width="24" height="24" viewBox="0 0 24 24" fill="none" xmlns="http://www.w3.org/2000/svg">
<path fill-rule="evenodd" clip-rule="evenodd" d="M12 19.5C16.1421 19.5 19.5 16.1421 19.5 12C19.5 7.85786 16.1421 4.5 12 4.5C7.85786 4.5 4.5 7.85786 4.5 12C4.5 16.1421 7.85786 19.5 12 19.5ZM12 21C16.9706 21 21 16.9706 21 12C21 7.02944 16.9706 3 12 3C7.02944 3 3 7.02944 3 12C3 16.9706 7.02944 21 12 21Z" fill="#071D49"/>
<path d="M13.25 7.75C13.25 8.44036 12.6904 9 12 9C11.3096 9 10.75 8.44036 10.75 7.75C10.75 7.05964 11.3096 6.5 12 6.5C12.6904 6.5 13.25 7.05964 13.25 7.75Z" fill="#071D49"/>
<path d="M13.25 12.25C13.25 12.9404 12.6904 13.5 12 13.5C11.3096 13.5 10.75 12.9404 10.75 12.25C10.75 11.5596 11.3096 11 12 11C12.6904 11 13.25 11.5596 13.25 12.25Z" fill="#071D49"/>
<path d="M13.25 16.75C13.25 17.4404 12.6904 18 12 18C11.3096 18 10.75 17.4404 10.75 16.75C10.75 16.0596 11.3096 15.5 12 15.5C12.6904 15.5 13.25 16.0596 13.25 16.75Z" fill="#071D49"/>
</svg>
