<svg width="24" height="24" viewBox="0 0 24 24" fill="none" xmlns="http://www.w3.org/2000/svg">
<path fill-rule="evenodd" clip-rule="evenodd" d="M4.78832 11.25C5.10519 8.16682 7.35415 5.65632 10.3043 4.94938C10.1631 5.16851 10.0173 5.41146 9.87176 5.67799C9.15953 6.98213 8.45378 8.85089 8.32933 11.25H4.78832ZM14.1282 5.67799C13.9827 5.41146 13.8369 5.16851 13.6957 4.94938C16.6459 5.65632 18.8948 8.16682 19.2117 11.25H15.6707C15.5462 8.85089 14.8405 6.98213 14.1282 5.67799ZM12.8118 6.39696C13.4259 7.5214 14.0463 9.14608 14.1684 11.25H9.8316C9.95374 9.14608 10.5741 7.5214 11.1882 6.39696C11.4778 5.86678 11.766 5.44775 12 5.1429C12.234 5.44775 12.5222 5.86678 12.8118 6.39696ZM13.6957 19.0506C16.6458 18.3437 18.8948 15.8332 19.2117 12.75H15.6707C15.5462 15.1491 14.8405 17.0178 14.1282 18.322C13.9827 18.5885 13.8368 18.8315 13.6957 19.0506ZM14.1684 12.75H9.8316C9.95374 14.8539 10.5741 16.4786 11.1882 17.603C11.4778 18.1332 11.766 18.5522 12 18.8571C12.234 18.5522 12.5222 18.1332 12.8118 17.603C13.4258 16.4786 14.0463 14.8539 14.1684 12.75ZM10.3043 19.0506C10.1632 18.8315 10.0173 18.5885 9.87176 18.322C9.15954 17.0178 8.45378 15.1491 8.32933 12.75H4.78832C5.10519 15.8332 7.35416 18.3437 10.3043 19.0506ZM12 3.25C7.16751 3.25 3.25 7.16751 3.25 12C3.25 16.8325 7.16751 20.75 12 20.75C16.8325 20.75 20.75 16.8325 20.75 12C20.75 7.16751 16.8325 3.25 12 3.25Z" fill="#071D49"/>
</svg>
